<svg viewBox="0 0 48 48" xmlns="http://www.w3.org/2000/svg" xmlns:xlink="http://www.w3.org/1999/xlink" >
<defs>



 <path fill="#000000" id="i-2183" d="M35,4c0-0.553,0.447-1,1-1s1,0.447,1,1s-0.447,1-1,1S35,4.553,35,4z M24,14c1.103,0,2-0.897,2-2s-0.897-2-2-2s-2,0.897-2,2 S22.897,14,24,14z M36,43c0.553,0,1-0.447,1-1s-0.447-1-1-1s-1,0.447-1,1S35.447,43,36,43z M17,12c0-3.859,3.141-7,7-7s7,3.141,7,7 s-3.141,7-7,7S17,15.859,17,12z M19,12c0,2.757,2.243,5,5,5s5-2.243,5-5s-2.243-5-5-5S19,9.243,19,12z M12,43c0.553,0,1-0.447,1-1 s-0.447-1-1-1s-1,0.447-1,1S11.447,43,12,43z M20,31c0-2.206,1.794-4,4-4s4,1.794,4,4s-1.794,4-4,4S20,33.206,20,31z M22,31 c0,1.103,0.897,2,2,2s2-0.897,2-2s-0.897-2-2-2S22,29.897,22,31z M40,0v46h-2v2h-5v-2H15v2h-5v-2H8V0H40z M38,2H10v42h28V2z M12,5 c0.553,0,1-0.447,1-1s-0.447-1-1-1s-1,0.447-1,1S11.447,5,12,5z M14,31c0-5.514,4.486-10,10-10s10,4.486,10,10s-4.486,10-10,10 S14,36.514,14,31z M16,31c0,4.411,3.589,8,8,8s8-3.589,8-8s-3.589-8-8-8S16,26.589,16,31z"/> 
</defs>

<use x="0" y="0" xlink:href="#i-2183"/>

</svg>