<svg height="480pt" viewBox="0 0 480 480.48143" width="480pt" xmlns="http://www.w3.org/2000/svg"><path d="m240.71875 152c-48.601562 0-88 39.402344-88 88 0 48.601562 39.398438 88 88 88s88-39.398438 88-88c-.058594-48.574219-39.421875-87.941406-88-88zm0 160c-39.765625 0-72-32.234375-72-72 0-39.761719 32.234375-72 72-72s72 32.238281 72 72c-.042969 39.746094-32.253906 71.957031-72 72zm0 0"/><path d="m240.71875 208c-17.671875 0-32 14.328125-32 32 0 17.675781 14.328125 32 32 32s32-14.324219 32-32c0-17.671875-14.328125-32-32-32zm0 48c-8.835938 0-16-7.160156-16-16 0-8.835938 7.164062-16 16-16s16 7.164062 16 16c0 8.839844-7.164062 16-16 16zm0 0"/><path d="m56.71875 240c-.128906-48.710938 19.1875-95.464844 53.664062-129.878906 2.078126-2.011719 2.90625-4.988282 2.171876-7.78125-.738282-2.796875-2.925782-4.976563-5.722657-5.707032-2.796875-.726562-5.769531.109376-7.777343 2.191407-77.777344 78.050781-77.777344 204.304687 0 282.351562 3.136718 3.039063 8.125 3.003907 11.214843-.078125 3.089844-3.082031 3.140625-8.074218.113281-11.214844-34.476562-34.417968-53.792968-81.167968-53.664062-129.882812zm0 0"/><path d="m135.34375 130.167969c-3.222656-3.027344-8.285156-2.867188-11.3125.355469-57.761719 61.558593-57.761719 157.398437 0 218.957031 3.027344 3.222656 8.09375 3.382812 11.316406.355469 3.222656-3.023438 3.382813-8.089844.355469-11.3125-51.96875-55.402344-51.96875-141.640626 0-197.042969 3.027344-3.222657 2.863281-8.289063-.359375-11.3125zm0 0"/><path d="m448.71875 0h-16v124l-.246094.152344c.085938.144531.160156.296875.246094.441406v113.519531l-11.328125 22.6875c-3.164063-5.585937-8.359375-9.734375-14.503906-11.589843l8.488281-12.738282c.878906-1.324218 1.347656-2.878906 1.34375-4.472656v-232h-16v61.195312c-43.867188-39.589843-100.910156-61.40625-160-61.195312-108.722656-.105469-203.964844 72.816406-232.222656 177.800781-28.257813 104.984375 17.515625 215.863281 111.601562 270.34375 94.085938 54.480469 213.035156 38.980469 290.019532-37.789062 76.984374-76.769531 92.816406-195.675781 38.601562-289.914063zm-40 273v62c-.007812 4.96875-4.03125 8.992188-9 9h-14c-4.964844-.007812-8.992188-4.03125-9-9v-62c.007812-4.964844 4.035156-8.988281 9-9h14c4.96875.011719 8.992188 4.035156 9 9zm56-33c0 123.714844-100.289062 224-224 224s-224-100.285156-224-224c0-123.710938 100.289062-224 224-224 60.261719-.214844 118.019531 24.082031 160 67.3125v35.890625c-5.226562-6.828125-10.96875-13.246094-17.167969-19.203125l-1.160156-1.160156c-3.117187-3.128906-8.1875-3.140625-11.320313-.023438-3.132812 3.121094-3.140624 8.1875-.023437 11.320313l1.167969 1.160156c12.925781 11.394531 22.738281 25.898437 28.503906 42.136719v76.167968l-.457031.6875c-2.15625-37.242187-17.324219-72.542968-42.855469-99.742187-3.027344-3.222656-8.09375-3.382813-11.316406-.355469-3.222656 3.023438-3.382813 8.089844-.355469 11.3125 25.089844 26.65625 39.035156 61.894532 38.984375 98.496094 0 2.730469-.273438 5.425781-.421875 8.144531-13.203125.734375-23.542969 11.636719-23.578125 24.855469v46.472656c-4.449219 6.757813-9.464844 13.132813-14.984375 19.050782-3.027344 3.222656-2.867187 8.289062.355469 11.3125 3.222656 3.027343 8.289062 2.867187 11.316406-.355469 1.738281-1.855469 3.304688-3.863281 4.960938-5.800781 2.976562 8.050781 9.871093 14.007812 18.265624 15.792968-3.074218 3.59375-6.257812 7.082032-9.601562 10.402344-2.078125 2.011719-2.90625 4.984375-2.171875 7.78125.738281 2.796875 2.925781 4.976562 5.722656 5.707031 2.796875.726563 5.769531-.113281 7.777344-2.195312 6.578125-6.652344 12.679687-13.761719 18.265625-21.269531 13.414062-.476563 24.054688-11.472657 24.09375-24.898438v-45.109375l23.199219-46.3125c.539062-1.113281.816406-2.339844.800781-3.578125v-82.925781c10.542969 26.378906 15.972656 54.519531 16 82.925781zm0 0"/></svg>