<svg viewBox="0 0 48 48" xmlns="http://www.w3.org/2000/svg" xmlns:xlink="http://www.w3.org/1999/xlink">
    <defs>


        <path fill="#000000" id="i-2159"
              d="M48,24c0-2.638-2.061-4.783-4.652-4.965c-0.539-2.095-1.4-4.058-2.543-5.83C41.544,12.339,42,11.227,42,10 c0-2.757-2.243-5-5-5c-1.353,0-2.575,0.545-3.477,1.42c-1.422-0.773-2.956-1.357-4.559-1.77C28.781,2.059,26.637,0,24,0 s-4.78,2.059-4.964,4.648c-1.604,0.412-3.14,0.995-4.562,1.77C13.572,5.544,12.351,5,11,5c-2.757,0-5,2.243-5,5 c0,1.225,0.454,2.335,1.191,3.2c-1.144,1.773-2.005,3.739-2.543,5.835C2.058,19.221,0,21.363,0,24s2.058,4.779,4.647,4.965 c0.539,2.096,1.4,4.061,2.543,5.834C6.454,35.665,6,36.775,6,38c0,2.757,2.243,5,5,5c1.351,0,2.572-0.544,3.473-1.418 c1.423,0.774,2.958,1.357,4.562,1.77C19.22,45.941,21.363,48,24,48s4.781-2.059,4.965-4.65c1.603-0.412,3.137-0.996,4.559-1.771 C34.425,42.455,35.647,43,37,43c2.757,0,5-2.243,5-5c0-1.228-0.457-2.341-1.197-3.207c1.141-1.771,2.002-3.733,2.541-5.828 C45.938,28.785,48,26.639,48,24z M46,24c0,1.39-0.954,2.551-2.238,2.89c0.14-0.949,0.236-1.913,0.237-2.9 c-0.001-0.979-0.097-1.936-0.234-2.878C45.047,21.451,46,22.611,46,24z M37,7c1.654,0,3,1.346,3,3c0,0.549-0.165,1.051-0.426,1.491 c-1.217-1.513-2.646-2.845-4.245-3.95C35.808,7.211,36.375,7,37,7z M24,2c1.388,0,2.547,0.951,2.889,2.233 C25.942,4.096,24.982,4,23.998,4c-0.982,0-1.941,0.096-2.886,0.232C21.453,2.951,22.612,2,24,2z M8,10c0-1.654,1.346-3,3-3 c0.624,0,1.188,0.209,1.667,0.538c-1.6,1.104-3.028,2.436-4.245,3.946C8.163,11.047,8,10.547,8,10z M2,24 c0-1.387,0.951-2.546,2.231-2.888C4.094,22.058,3.999,23.017,3.999,24c0,0.982,0.095,1.942,0.233,2.888C2.951,26.546,2,25.387,2,24z M11,41c-1.654,0-3-1.346-3-3c0-0.547,0.163-1.047,0.422-1.484c1.217,1.511,2.646,2.842,4.245,3.946C12.188,40.791,11.624,41,11,41z M24,46c-1.388,0-2.547-0.951-2.888-2.232C22.057,43.904,23.016,44,23.998,44c0.984,0,1.944-0.096,2.891-0.233 C26.547,45.049,25.388,46,24,46z M40,38c0,1.654-1.346,3-3,3c-0.626,0-1.193-0.211-1.672-0.541c1.6-1.106,3.028-2.439,4.245-3.952 C39.835,36.947,40,37.45,40,38z M23.998,42c-9.925,0-18-8.074-18-18s8.075-18,18-18c9.916,0,17.991,8.07,18.001,18.009 C41.989,33.93,33.914,42,23.998,42z"/>
    </defs>

    <use x="0" y="0" xlink:href="#i-2159"/>

</svg>