<?xml version="1.0" encoding="iso-8859-1"?>
<!-- Generator: Adobe Illustrator 19.0.0, SVG Export Plug-In . SVG Version: 6.00 Build 0)  -->
<svg version="1.1" id="Capa_1" xmlns="http://www.w3.org/2000/svg" xmlns:xlink="http://www.w3.org/1999/xlink" x="0px" y="0px"
	 viewBox="0 0 512.002 512.002" style="enable-background:new 0 0 512.002 512.002;" xml:space="preserve">
<g>
	<g>
		<path d="M103.001,130.845c-5.522,0-10,4.477-10,10v0.475c0,5.523,4.478,10,10,10c5.522,0,10-4.477,10-10v-0.475
			C113.001,135.322,108.523,130.845,103.001,130.845z"/>
	</g>
</g>
<g>
	<g>
		<path d="M508.181,115.217l-93.001-73.08c-0.068-0.054-0.143-0.097-0.213-0.149c-0.185-0.138-0.373-0.272-0.568-0.397
			c-0.105-0.067-0.211-0.13-0.318-0.193c-0.199-0.118-0.403-0.229-0.611-0.333c-0.058-0.029-0.111-0.065-0.169-0.093l-84-40
			c-0.049-0.024-0.102-0.039-0.152-0.062c-0.222-0.102-0.45-0.193-0.68-0.279c-0.101-0.037-0.201-0.077-0.303-0.111
			c-0.245-0.082-0.495-0.15-0.748-0.213c-0.093-0.023-0.186-0.051-0.28-0.072c-0.268-0.058-0.541-0.101-0.816-0.137
			c-0.082-0.011-0.163-0.029-0.245-0.037C325.724,0.022,325.365,0,325.001,0h-138c-0.364,0-0.723,0.022-1.076,0.06
			c-0.082,0.009-0.163,0.027-0.245,0.037c-0.275,0.036-0.548,0.079-0.816,0.137c-0.094,0.021-0.186,0.049-0.279,0.072
			c-0.253,0.063-0.503,0.131-0.748,0.213c-0.102,0.034-0.202,0.074-0.303,0.111c-0.231,0.086-0.458,0.177-0.681,0.279
			c-0.05,0.023-0.102,0.039-0.152,0.062l-84,40c-0.058,0.028-0.112,0.064-0.169,0.093c-0.208,0.104-0.411,0.215-0.611,0.333
			c-0.107,0.063-0.214,0.126-0.318,0.193c-0.195,0.125-0.382,0.259-0.567,0.397c-0.07,0.052-0.145,0.096-0.213,0.149l-93.001,73.08
			C1.408,117.113,0,120.011,0,123.08v157.5c0,5.523,4.478,10,10,10h83.001v211.422c0,5.523,4.478,10,10,10h306
			c5.522,0,10-4.477,10-10V290.58h83.001c5.522,0,10-4.477,10-10v-157.5C512.002,120.011,510.594,117.113,508.181,115.217z
			 M250.251,20h11.5v23.457h-11.5V20z M197.001,20h33.25v33.457c0,5.523,4.478,10,10,10h31.5c5.522,0,10-4.477,10-10V20h33.25v26
			c0,32.533-26.468,59-59,59c-32.532,0-59-26.467-59-59V20z M93.001,270.58H20v-10.75h73.001V270.58z M399.001,492.002h-286v-10.75
			h286V492.002z M492.002,270.58h-73.001v-10.75h73.001V270.58z M492.002,239.83h-73.001v-0.689c0-5.523-4.478-10-10-10
			c-5.522,0-10,4.477-10,10v222.11h-286V170.405c0-5.523-4.478-10-10-10c-5.522,0-10,4.477-10,10v69.425H20V127.939l73.001-57.364
			v20.862c0,5.523,4.478,10,10,10c5.522,0,10-4.477,10-10V56.314l64-30.476V46c0,43.56,35.439,79,79,79c43.561,0,79-35.44,79-79
			V25.838l64,30.476v103.861c0,5.523,4.478,10,10,10c5.522,0,10-4.477,10-10v-89.6l73.001,57.364V239.83z"/>
	</g>
</g>
<g>
	<g>
		<path d="M409.001,179.259c-5.522,0-10,4.477-10,10v0.475c0,5.523,4.478,10,10,10c5.522,0,10-4.477,10-10v-0.475
			C419.001,183.736,414.523,179.259,409.001,179.259z"/>
	</g>
</g>
<g>
	<g>
		<path d="M182.53,160.121h-24.669c-5.523,0-10,4.477-10,10v62.192c0,5.523,4.477,10,10,10c5.522,0,10-4.477,10-10v-20.228h14.669
			c14.326,0,25.981-11.655,25.981-25.982C208.512,171.776,196.857,160.121,182.53,160.121z M182.53,192.085h-14.669v-11.964h14.669
			c3.242,0,5.981,2.74,5.981,5.982C188.512,189.346,185.773,192.085,182.53,192.085z"/>
	</g>
</g>
<g>
	<g>
		<path d="M338.158,160.121H313.49c-5.522,0-10,4.477-10,10v62.192c0,5.523,4.478,10,10,10c5.522,0,10-4.477,10-10v-20.228h14.668
			c14.327,0,25.982-11.655,25.982-25.982C364.141,171.776,352.485,160.121,338.158,160.121z M338.158,192.085H323.49v-11.964h14.668
			c3.243,0,5.982,2.74,5.982,5.982C344.141,189.346,341.401,192.085,338.158,192.085z"/>
	</g>
</g>
<g>
	<g>
		<path d="M261.213,160.121H250.79c-13.848,0-25.114,13.611-25.114,30.341v21.51c0,16.73,11.267,30.341,25.114,30.341h10.423
			c13.848,0,25.113-13.611,25.113-30.341v-21.51C286.326,173.731,275.061,160.121,261.213,160.121z M266.326,211.972
			c0,6.314-3.357,10.341-5.113,10.341H250.79c-1.756,0-5.114-4.027-5.114-10.341v-21.51c0-6.314,3.358-10.341,5.114-10.341h10.423
			c1.756,0,5.113,4.027,5.113,10.341V211.972z"/>
	</g>
</g>
<g>
</g>
<g>
</g>
<g>
</g>
<g>
</g>
<g>
</g>
<g>
</g>
<g>
</g>
<g>
</g>
<g>
</g>
<g>
</g>
<g>
</g>
<g>
</g>
<g>
</g>
<g>
</g>
<g>
</g>
</svg>
