<?xml version="1.0" encoding="iso-8859-1"?>
<!-- Generator: Adobe Illustrator 18.1.1, SVG Export Plug-In . SVG Version: 6.00 Build 0)  -->
<svg version="1.1" id="Capa_1" xmlns="http://www.w3.org/2000/svg" xmlns:xlink="http://www.w3.org/1999/xlink" x="0px" y="0px"
	 viewBox="0 0 30.049 30.049" style="enable-background:new 0 0 30.049 30.049;" xml:space="preserve">
<g>
	<path style="fill:#030104;" d="M13.668,10.672h-1.557c-0.189,0-0.348,0.148-0.348,0.342v8.008c0,0.189,0.158,0.344,0.348,0.344
		h1.557c0.191,0,0.346-0.154,0.346-0.344v-8.008C14.014,10.82,13.859,10.672,13.668,10.672z"/>
	<path style="fill:#030104;" d="M17.939,10.672h-1.561c-0.189,0-0.342,0.148-0.342,0.342v8.008c0,0.189,0.152,0.344,0.342,0.344
		h1.561c0.189,0,0.344-0.154,0.344-0.344v-8.008C18.284,10.82,18.129,10.672,17.939,10.672z"/>
	<path style="fill:#030104;" d="M15.025,0C6.727,0,0,6.729,0,15.029c0,8.297,6.727,15.02,15.025,15.02
		c8.301,0,15.023-6.723,15.023-15.02C30.049,6.729,23.326,0,15.025,0z M15.025,27.541c-6.911,0-12.514-5.602-12.514-12.512
		c0-6.918,5.603-12.52,12.514-12.52c6.912,0,12.517,5.602,12.517,12.52C27.542,21.939,21.938,27.541,15.025,27.541z"/>
</g>
<g>
</g>
<g>
</g>
<g>
</g>
<g>
</g>
<g>
</g>
<g>
</g>
<g>
</g>
<g>
</g>
<g>
</g>
<g>
</g>
<g>
</g>
<g>
</g>
<g>
</g>
<g>
</g>
<g>
</g>
</svg>
