<?xml version="1.0" encoding="iso-8859-1"?>
<!-- Generator: Adobe Illustrator 19.0.0, SVG Export Plug-In . SVG Version: 6.00 Build 0)  -->
<svg version="1.1" id="Capa_1" xmlns="http://www.w3.org/2000/svg" xmlns:xlink="http://www.w3.org/1999/xlink" x="0px"
     y="0px"
     viewBox="0 0 512.001 512.001" style="enable-background:new 0 0 512.001 512.001;" xml:space="preserve">
<path style="fill:#FF97A4;" d="M256.001,125.159c-159.078-176.752-300.48,0-229.779,141.402s229.779,194.428,229.779,194.428
	s159.078-53.026,229.779-194.428S415.078-51.593,256.001,125.159z"/>
    <path style="fill:#FF7D8D;" d="M67.419,254.503c-39.859-79.719-12.3-170.67,47.832-203.18
	c-87.041,6.45-137.135,119.025-89.029,215.238c70.701,141.402,229.779,194.428,229.779,194.428s13.591-4.532,34.588-14.472
	C259.837,434.737,129.529,378.723,67.419,254.503z"/>
    <g>
	<path style="fill:#EFECF1;" d="M319.95,206.636c-5.135-4.24-12.735-3.516-16.975,1.618c-4.241,5.135-3.517,12.735,1.618,16.975
		c17.649,14.578,27.773,36.05,27.773,58.914c0,42.107-34.258,76.365-76.365,76.365s-76.365-34.258-76.365-76.365
		c0-22.864,10.123-44.338,27.775-58.915c5.134-4.241,5.859-11.841,1.619-16.976c-4.24-5.133-11.838-5.858-16.976-1.619
		c-23.217,19.175-36.533,47.426-36.533,77.51c0,55.406,45.075,100.48,100.48,100.48s100.48-45.075,100.48-100.48
		C356.481,254.061,343.166,225.81,319.95,206.636z"/>
        <path style="fill:#EFECF1;" d="M256.001,171.605c-6.659,0-12.058,5.399-12.058,12.058v100.48c0,6.659,5.399,12.058,12.058,12.058
		c6.659,0,12.058-5.399,12.058-12.058v-100.48C268.058,177.004,262.659,171.605,256.001,171.605z"/>
</g>
    <path d="M508.128,151.605c-8.086-37.41-28.713-69.765-56.596-88.766c-26.71-18.204-58.296-23.712-91.342-15.924
	c-35.058,8.262-70.076,30.824-104.189,67.112c-34.113-36.287-69.133-58.85-104.189-67.112c-33.046-7.785-64.632-2.281-91.342,15.924
	c-27.884,19.002-48.512,51.356-56.598,88.766c-8.478,39.22-2.934,81.242,15.609,118.327
	c37.293,74.586,98.945,124.493,144.096,153.227c48.828,31.073,88.38,44.426,90.039,44.98c1.538,0.512,3.228,0.512,4.767,0
	c1.162-0.388,28.897-9.733,66.593-30.942c34.777-19.568,84.824-53.352,125.739-103.182c2.642-3.216,2.175-7.966-1.041-10.607
	c-3.216-2.643-7.966-2.175-10.607,1.041c-69.207,84.286-166.673,122.542-183.073,128.545c-9.229-3.364-44.02-16.851-84.686-42.78
	C127.888,382.528,68.64,334.548,32.961,263.192C-5.173,186.924,21.315,107.763,68.955,75.294
	c23.123-15.759,50.578-20.498,79.398-13.709c33.932,7.996,68.264,31.083,102.045,68.616c2.95,3.277,8.253,3.277,11.204,0
	c33.78-37.533,68.113-60.62,102.045-68.616c28.82-6.786,56.275-2.051,79.398,13.709c47.64,32.468,74.128,111.63,35.994,187.898
	c-5.613,11.226-12.039,22.335-19.101,33.018c-2.264,3.426-1.294,8.178,2.131,10.443c3.426,2.265,8.178,1.296,10.443-2.131
	c7.393-11.187,14.127-22.824,20.008-34.589C511.062,232.847,516.606,190.825,508.128,151.605z"/>
    <path d="M212.209,231.039c8.329-6.88,9.509-19.254,2.63-27.585c-6.877-8.327-19.251-9.505-27.585-2.631
	c-24.956,20.612-39.27,50.98-39.27,83.32c0,59.56,48.457,108.016,108.016,108.016s108.016-48.457,108.016-108.016
	c0-32.34-14.312-62.707-39.269-83.317c-8.331-6.881-20.704-5.699-27.584,2.63c-6.803,8.238-5.604,20.786,2.63,27.584
	c15.911,13.141,25.036,32.496,25.036,53.104c0,37.952-30.877,68.829-68.829,68.829c-37.952,0-68.829-30.877-68.829-68.829
	C187.171,263.534,196.297,244.18,212.209,231.039z M202.611,219.417c-19.391,16.015-30.512,39.605-30.512,64.725
	c0,46.263,37.638,83.901,83.901,83.901s83.901-37.638,83.901-83.901c0-25.119-11.12-48.71-30.51-64.724
	c-2.028-1.673-2.173-4.817-0.318-6.679c1.625-1.63,4.303-1.757,6.078-0.292c21.476,17.736,33.794,43.869,33.794,71.696
	c0,51.25-41.694,92.944-92.944,92.944s-92.944-41.694-92.944-92.944c0-27.827,12.318-53.961,33.794-71.697
	c2.025-1.673,5.149-1.225,6.623,0.947C204.764,215.296,204.385,217.952,202.611,219.417z"/>
    <path d="M275.594,284.143v-100.48c0-10.804-8.79-19.594-19.594-19.594c-10.804,0-19.594,8.79-19.594,19.594v100.48
	c0,10.804,8.79,19.594,19.594,19.594C266.804,303.737,275.594,294.947,275.594,284.143z M251.479,284.143v-100.48
	c0-2.493,2.029-4.522,4.522-4.522c2.493,0,4.522,2.029,4.522,4.522v100.48c0,2.493-2.029,4.522-4.522,4.522
	C253.508,288.665,251.479,286.637,251.479,284.143z"/>
    <g>
</g>
    <g>
</g>
    <g>
</g>
    <g>
</g>
    <g>
</g>
    <g>
</g>
    <g>
</g>
    <g>
</g>
    <g>
</g>
    <g>
</g>
    <g>
</g>
    <g>
</g>
    <g>
</g>
    <g>
</g>
    <g>
</g>
</svg>
