<?xml version="1.0" encoding="utf-8"?>
<!-- Generator: Adobe Illustrator 21.1.0, SVG Export Plug-In . SVG Version: 6.00 Build 0)  -->
<svg version="1.1" id="Capa_1" xmlns="http://www.w3.org/2000/svg" xmlns:xlink="http://www.w3.org/1999/xlink" x="0px"
     y="0px"
     viewBox="0 0 239 239" style="enable-background:new 0 0 239 239;" xml:space="preserve">
<style type="text/css">
	.st0{fill:#FF9366;}
	.st1{fill:#FFD4C2;}
</style>
    <path class="st0" d="M30,63.9c5.3,4.1,11.6,6.3,18.3,6.3c6.7,0,13-2.2,18.3-6.3c7.4-5.7,11.6-14.3,11.6-23.5
	c0-16.4-13.4-29.8-29.8-29.8c-16.4,0-29.8,13.4-29.8,29.8C18.4,49.6,22.6,58.2,30,63.9z M48.2,24.9c8.5,0,15.5,6.9,15.5,15.5
	c0,4.8-2.2,9.2-6,12.2c-5.5,4.3-13.4,4.3-18.9,0c-3.8-3-6-7.4-6-12.2C32.8,31.8,39.7,24.9,48.2,24.9z"/>
    <path class="st0" d="M0,97.4v59.3c0,7.3,5.2,13.6,12.8,15.9c0,8.6,0,22.8,0,22.8v14.9c0,9.5,8.4,17.3,18.8,17.3h1.7
	c5.9,0,11.1-2.5,14.6-6.3c3.4,4.3,8.9,7.2,15.1,7.2h1.7c10.3,0,18.7-7.7,18.7-17.3v-15.8c0,0-0.1-14.9-0.1-23
	c7.2-2.5,12-8.6,12-15.7V97.4c0-13.7-14.6-25.7-24-26.8l-3.5-0.3l-2.4,2.3C64,73.9,62.5,75,60.9,76c-8.1,4.9-18.7,4.5-26.5-0.7
	c-1.1-0.7-2.2-1.6-3.3-2.7l-2-2l-3.4-0.2C15,70.4,0,84,0,97.4z M14.3,97.4c0-4.8,6-10.3,9.6-12.1c0.8,0.7,1.7,1.3,2.5,1.8
	c12.3,8.3,29,8.8,41.8,1.1c1.3-0.8,2.6-1.7,3.8-2.6c3.8,2.1,8.9,7.3,8.9,11.7v59.3c0,0.7-1.1,1.9-3.3,2.4c-0.5,0.1-1.7,0.5-2.8,0.9
	l-5.7,0.1L69,167c0,0.9,0.1,22,0.1,28.4v15.8c0,1.4-1.8,2.9-4.3,2.9H63c-2.6,0-4.3-1.5-4.3-2.9v-42.1H37.8v41.2
	c0,1.4-1.9,2.9-4.5,2.9h-1.7c-2.6,0-4.5-1.5-4.5-2.9v-14.8c0,0,0-28.7,0-29.3l-0.5-7h-7.1c-0.5,0-1.5,0-1.7,0
	c-2.3-0.4-3.5-1.7-3.5-2.4C14.3,156.7,14.3,97.4,14.3,97.4z"/>
    <path class="st1" d="M104.5,146.8c1.4,1.4,3.2,2.1,5.1,2.1c1.8,0,3.7-0.7,5.1-2.1l16.2-16.2l16.2,16.2c1.4,1.4,3.2,2.1,5.1,2.1
	c1.8,0,3.7-0.7,5.1-2.1c2.8-2.8,2.8-7.3,0-10.1L141,120.4l16.2-16.2c2.8-2.8,2.8-7.3,0-10.1c-2.8-2.8-7.3-2.8-10.1,0l-16.2,16.2
	l-16.2-16.2c-2.8-2.8-7.3-2.8-10.1,0s-2.8,7.3,0,10.1l16.2,16.2l-16.2,16.2C101.7,139.4,101.7,144,104.5,146.8z"/>
    <path class="st0" d="M239,133.2h-11.5V69.8h-22.4l-37.3,61.6v17.4h40.2v21.8h19.5v-21.8H239L239,133.2L239,133.2L239,133.2z
	 M207.9,133.2h-25.3l25.3-43.7V133.2z"/>
</svg>
