<?xml version="1.0" encoding="utf-8"?>
<!-- Generator: Adobe Illustrator 21.1.0, SVG Export Plug-In . SVG Version: 6.00 Build 0)  -->
<svg version="1.1" id="cup" xmlns="http://www.w3.org/2000/svg" xmlns:xlink="http://www.w3.org/1999/xlink" x="0px" y="0px"
	 viewBox="0 0 32 32" style="enable-background:new 0 0 32 32;" xml:space="preserve">
<style type="text/css">
	.st0{fill:#FAF5E4;}
	.st1{fill:#A4D4AE;}
	.st2{fill:#F0CF85;}
</style>
<path d="M26,18.1V20c0,1-0.2,2.1-0.5,3c1.4,0,2.5-1.1,2.5-2.5C28,19.3,27.1,18.3,26,18.1z"/>
<path class="st0" d="M8,18.2c1.8-0.9,4.9-1.8,8.4-0.1c3.5,1.7,6.5,0.8,7.6,0.3V16H8V18.2z"/>
<path class="st1" d="M15.5,19.9C12,18.2,9,19.8,8,20.5c0.3,4.2,3.8,7.5,8.1,7.4c3,0,5.6-1.7,7-4.2c0-0.1,0.1-0.3,0.2-0.4
	c0.4-0.8,0.6-1.8,0.7-2.8c-0.9,0.2-2.1,0.5-3.5,0.5C19,21,17.3,20.8,15.5,19.9z"/>
<path d="M26,16.1V15c0-0.6-0.4-1-1-1H7c-0.6,0-1,0.4-1,1v5c0,3.3,1.6,6.2,4,8H5c-0.6,0-1,0.4-1,1s0.4,1,1,1h22c0.6,0,1-0.4,1-1
	s-0.4-1-1-1h-5c1.1-0.8,2-1.8,2.6-3h0.9c2.5,0,4.5-2,4.5-4.5C30,18.2,28.2,16.3,26,16.1z M23.3,23.3c-0.1,0.1-0.2,0.3-0.2,0.4
	c-1.4,2.5-4,4.2-7,4.2C11.8,28,8.3,24.7,8,20.5c1-0.7,4-2.3,7.5-0.6c1.8,0.9,3.5,1.1,5,1.1c1.4,0,2.6-0.3,3.5-0.5
	C23.9,21.5,23.7,22.5,23.3,23.3z M24,18.4c-1.1,0.5-4.1,1.4-7.6-0.3c-3.5-1.7-6.6-0.8-8.4,0.1V16h16V18.4z M25.5,23
	c0.3-0.9,0.5-2,0.5-3v-1.9c1.1,0.2,2,1.2,2,2.4C28,21.9,26.9,23,25.5,23z"/>
<path class="st2" d="M11,11h3c0.3,0,0.5,0.2,0.5,0.5V12c0,0.6,0.4,1,1,1s1-0.4,1-1v-0.5c0-1.4-1.1-2.5-2.5-2.5h-3
	c-0.3,0-0.5-0.2-0.5-0.5S10.7,8,11,8h9.5c1.7,0,3-1.3,3-3s-1.3-3-3-3h-10c-0.6,0-1,0.4-1,1s0.4,1,1,1h10c0.6,0,1,0.4,1,1s-0.4,1-1,1
	H11C9.6,6,8.5,7.1,8.5,8.5S9.6,11,11,11z"/>
</svg>
