<?xml version="1.0" encoding="UTF-8" standalone="no"?> <svg id="Layer_1" enable-background="new 0 0 512.05 512.05" height="512" viewBox="0 0 512.05 512.05" width="512" xmlns="http://www.w3.org/2000/svg"><g><path d="m59.097 357.745-59.097 124.537 29.756 29.755 124.536-59.096z" fill="#ff3838"/><path d="m29.756 512.037 124.536-59.096-47.598-47.598-91.817 91.816z" fill="#c30047"/><path d="m92.023 288.359-46.58 98.159 80.076 80.077 98.159-46.581z" fill="#ffd321"/><path d="m125.519 466.595 98.159-46.581-65.828-65.828-72.37 72.37z" fill="#ffaf00"/><path d="m125.138 218.574-46.769 98.558 116.536 116.536 98.558-46.769z" fill="#bee75e"/><path d="m194.905 433.668 98.558-46.769-84.163-84.163-72.663 72.663z" fill="#5bc980"/><g><path d="m343.076 267.425-21.213-21.213 30.477-30.478c23.874-23.874 62.721-23.874 86.596 0l-21.213 21.213c-12.177-12.178-31.992-12.178-44.17 0z" fill="#ff6326"/></g><g><path d="m265.826 190.175-21.213-21.213 30.477-30.478c5.899-5.899 9.148-13.742 9.148-22.085s-3.249-16.186-9.148-22.085l21.213-21.213c11.565 11.564 17.935 26.941 17.935 43.298s-6.37 31.733-17.935 43.298z" fill="#ff6326"/></g><g><path d="m308.29 136.678h104.137v30h-104.137z" fill="#ff8e00" transform="matrix(.707 -.707 .707 .707 -1.706 299.238)"/></g><g><path d="m415.59 66.446h30v30.002h-30z" fill="#ffd321"/></g><g><path d="m267.252.013h30v30.002h-30z" fill="#98f9ff"/></g><g><path d="m182.395 84.871h30v30.002h-30z" fill="#98f9ff"/></g><g><path d="m184.516 2.134h30v30.002h-30z" fill="#bee75e"/></g><g><path d="m482.048 213.987h30.002v30h-30.002z" fill="#98f9ff"/></g><g><path d="m397.19 298.845h30.001v30h-30.001z" fill="#98f9ff"/></g><g><path d="m479.926 296.724h30.002v30h-30.002z" fill="#bee75e"/></g><path d="m153.335 159.155-41.851 88.192 153.206 153.206 88.193-41.85z" fill="#98f9ff"/><path d="m264.69 400.553 88.193-41.85-99.775-99.775-65.021 65.021z" fill="#5ecbf1"/><g><path d="m238.109 88.756h30v340.345h-30z" fill="#ececef" transform="matrix(.707 -.707 .707 .707 -108.956 254.813)"/></g><g><path d="m343.076 267.425-21.213-21.213 30.477-30.478c23.874-23.874 62.721-23.874 86.596 0l-21.213 21.213c-12.177-12.178-31.992-12.178-44.17 0z" fill="#ff3838"/></g><g><path d="m482.048 213.987h30.002v30h-30.002z" fill="#5ecbf1"/></g><g><path d="m397.19 298.845h30.001v30h-30.001z" fill="#5ecbf1"/></g><g><path d="m479.926 296.724h30.002v30h-30.002z" fill="#5bc980"/></g><path d="m313.593 149.481h104.137v15h-104.137z" fill="#ff6326" transform="matrix(.707 -.707 .707 .707 -3.904 304.538)"/><path d="m415.59 96.448h30v-30.002l-30 30z" fill="#ffaf00"/><path d="m298.273 234.007h30v170.173h-30z" fill="#dddddf" transform="matrix(.707 -.707 .707 .707 -133.878 314.978)"/></g></svg>